
      <svg data-logo="logo" xmlns="http://www.w3.org/2000/svg" viewBox="0 0 238 43">
        <g id="logogram" transform="translate(0, 1) rotate(0) "><path d="M37.8473 40.43C44.2801 40.2989 49.4526 35.0373 49.4526 28.5688C49.4526 25.4231 48.2038 22.4061 45.9809 20.1818L26.2421 0.429993V12.707C26.2421 14.7603 27.0573 16.7295 28.5082 18.1814L33.1321 22.8084L33.1448 22.8207L40.8979 30.5789C41.1497 30.8309 41.1497 31.2394 40.8979 31.4913C40.6461 31.7433 40.2379 31.7433 39.9861 31.4913L37.3136 28.8171H12.5917L9.91919 31.4913C9.6674 31.7433 9.25918 31.7433 9.00739 31.4913C8.75561 31.2394 8.75561 30.8309 9.00739 30.5789L16.7605 22.8207L16.7732 22.8084L21.3971 18.1814C22.848 16.7295 23.6631 14.7603 23.6631 12.707V0.429993L3.92439 20.1818C1.70146 22.4061 0.452637 25.4231 0.452637 28.5688C0.452637 35.0373 5.62516 40.2989 12.058 40.43H37.8473Z" fill="#FF0A0A"/></g>
        <g id="logotype" transform="translate(52, 7)"><path fill="#d62e2e" d="M16.08 29L12 29L2.88 0.88L8.24 0.88L15 22.52L13.20 22.52L19.84 0.88L23.88 0.88L30.52 22.52L28.68 22.52L35.48 0.88L40.84 0.88L31.68 29L27.64 29L20.96 7.40L22.72 7.40L16.08 29ZM49.44 29.40L49.44 29.40Q46.80 29.40 44.68 28.08Q42.56 26.76 41.36 24.48Q40.16 22.20 40.16 19.36L40.16 19.36Q40.16 16.48 41.36 14.20Q42.56 11.92 44.68 10.60Q46.80 9.28 49.44 9.28L49.44 9.28Q51.52 9.28 53.16 10.12Q54.80 10.96 55.78 12.46Q56.76 13.96 56.84 15.84L56.84 15.84L56.84 22.80Q56.76 24.72 55.78 26.20Q54.80 27.68 53.16 28.54Q51.52 29.40 49.44 29.40ZM50.40 24.56L50.40 24.56Q52.60 24.56 53.96 23.10Q55.32 21.64 55.32 19.32L55.32 19.32Q55.32 17.80 54.70 16.62Q54.08 15.44 52.98 14.78Q51.88 14.12 50.40 14.12L50.40 14.12Q48.96 14.12 47.86 14.78Q46.76 15.44 46.14 16.62Q45.52 17.80 45.52 19.32L45.52 19.32Q45.52 20.88 46.14 22.06Q46.76 23.24 47.86 23.90Q48.96 24.56 50.40 24.56ZM60.24 29L55.04 29L55.04 23.80L55.88 19.08L55.04 14.44L55.04 9.68L60.24 9.68L60.24 29ZM70.12 29L64.88 29L64.88 9.68L70.12 9.68L70.12 29ZM70.12 18.32L70.12 18.32L68.08 16.96Q68.44 13.40 70.16 11.34Q71.88 9.28 75.12 9.28L75.12 9.28Q76.52 9.28 77.64 9.74Q78.76 10.20 79.68 11.24L79.68 11.24L76.40 15Q75.96 14.52 75.34 14.28Q74.72 14.04 73.92 14.04L73.92 14.04Q72.24 14.04 71.18 15.10Q70.12 16.16 70.12 18.32ZM89.16 29.40L89.16 29.40Q86.48 29.40 84.36 28.08Q82.24 26.76 81.02 24.48Q79.80 22.20 79.80 19.36L79.80 19.36Q79.80 16.48 81.02 14.20Q82.24 11.92 84.34 10.60Q86.44 9.28 89.16 9.28L89.16 9.28Q91.24 9.28 92.90 10.12Q94.56 10.96 95.58 12.46Q96.60 13.96 96.68 15.84L96.68 15.84L96.68 22.72Q96.60 24.60 95.60 26.12Q94.60 27.64 92.92 28.52Q91.24 29.40 89.16 29.40ZM90.04 24.56L90.04 24.56Q91.52 24.56 92.62 23.90Q93.72 23.24 94.34 22.06Q94.96 20.88 94.96 19.32L94.96 19.32Q94.96 17.80 94.34 16.62Q93.72 15.44 92.62 14.78Q91.52 14.12 90.08 14.12L90.08 14.12Q88.60 14.12 87.50 14.80Q86.40 15.48 85.78 16.64Q85.16 17.80 85.16 19.32L85.16 19.32Q85.16 20.88 85.78 22.06Q86.40 23.24 87.52 23.90Q88.64 24.56 90.04 24.56ZM99.88 0.08L99.88 29L94.68 29L94.68 23.80L95.52 19.08L94.64 14.44L94.64 0.08L99.88 0.08ZM109.76 29L104.52 29L104.52 9.68L109.76 9.68L109.76 29ZM109.76 18.32L109.76 18.32L107.72 16.96Q108.08 13.40 109.80 11.34Q111.52 9.28 114.76 9.28L114.76 9.28Q116.16 9.28 117.28 9.74Q118.40 10.20 119.32 11.24L119.32 11.24L116.04 15Q115.60 14.52 114.98 14.28Q114.36 14.04 113.56 14.04L113.56 14.04Q111.88 14.04 110.82 15.10Q109.76 16.16 109.76 18.32ZM129.72 29.40L129.72 29.40Q126.80 29.40 124.46 28.06Q122.12 26.72 120.74 24.42Q119.36 22.12 119.36 19.28L119.36 19.28Q119.36 16.44 120.72 14.18Q122.08 11.92 124.44 10.58Q126.80 9.24 129.68 9.24L129.68 9.24Q132.64 9.24 134.98 10.58Q137.32 11.92 138.68 14.18Q140.04 16.44 140.04 19.28L140.04 19.28Q140.04 22.12 138.68 24.42Q137.32 26.72 134.98 28.06Q132.64 29.40 129.72 29.40ZM129.68 24.52L129.68 24.52Q131.16 24.52 132.30 23.86Q133.44 23.20 134.06 22.02Q134.68 20.84 134.68 19.32L134.68 19.32Q134.68 17.80 134.04 16.64Q133.40 15.48 132.28 14.82Q131.16 14.16 129.68 14.16L129.68 14.16Q128.24 14.16 127.12 14.82Q126 15.48 125.36 16.64Q124.72 17.80 124.72 19.32L124.72 19.32Q124.72 20.84 125.36 22.02Q126 23.20 127.12 23.86Q128.24 24.52 129.68 24.52ZM154.12 29.40L154.12 29.40Q152.04 29.40 150.36 28.52Q148.68 27.64 147.68 26.12Q146.68 24.60 146.60 22.72L146.60 22.72L146.60 15.84Q146.68 13.96 147.70 12.46Q148.72 10.96 150.40 10.12Q152.08 9.28 154.12 9.28L154.12 9.28Q156.80 9.28 158.92 10.60Q161.04 11.92 162.26 14.20Q163.48 16.48 163.48 19.36L163.48 19.36Q163.48 22.20 162.26 24.48Q161.04 26.76 158.92 28.08Q156.80 29.40 154.12 29.40ZM148.60 29L143.40 29L143.40 0.08L148.64 0.08L148.64 14.44L147.76 19.08L148.60 23.80L148.60 29ZM153.24 24.56L153.24 24.56Q154.68 24.56 155.78 23.90Q156.88 23.24 157.50 22.06Q158.12 20.88 158.12 19.32L158.12 19.32Q158.12 17.80 157.50 16.62Q156.88 15.44 155.76 14.78Q154.64 14.12 153.20 14.12L153.20 14.12Q151.76 14.12 150.66 14.78Q149.56 15.44 148.94 16.62Q148.32 17.80 148.32 19.32L148.32 19.32Q148.32 20.88 148.94 22.06Q149.56 23.24 150.68 23.90Q151.80 24.56 153.24 24.56ZM176.16 29.40L176.16 29.40Q173.12 29.40 170.76 28.10Q168.40 26.80 167.02 24.52Q165.64 22.24 165.64 19.32L165.64 19.32Q165.64 16.44 166.98 14.18Q168.32 11.92 170.64 10.58Q172.96 9.24 175.80 9.24L175.80 9.24Q178.60 9.24 180.74 10.50Q182.88 11.76 184.10 13.94Q185.32 16.12 185.32 18.88L185.32 18.88Q185.32 19.40 185.26 19.94Q185.20 20.48 185.04 21.16L185.04 21.16L168.80 21.20L168.80 17.28L182.60 17.24L180.48 18.88Q180.40 17.16 179.86 16Q179.32 14.84 178.30 14.22Q177.28 13.60 175.80 13.60L175.80 13.60Q174.24 13.60 173.08 14.30Q171.92 15 171.30 16.26Q170.68 17.52 170.68 19.24L170.68 19.24Q170.68 21 171.34 22.30Q172.00 23.60 173.24 24.30Q174.48 25 176.12 25L176.12 25Q177.60 25 178.80 24.50Q180.00 24 180.88 23L180.88 23L183.96 26.08Q182.56 27.72 180.54 28.56Q178.52 29.40 176.16 29.40Z"/></g>
        
      </svg>
    